G04*
G04 #@! TF.GenerationSoftware,Altium Limited,Altium Designer,21.9.2 (33)*
G04*
G04 Layer_Physical_Order=3*
G04 Layer_Color=128*
%FSLAX25Y25*%
%MOIN*%
G70*
G04*
G04 #@! TF.SameCoordinates,C0BA0E73-4C5D-4CFB-B628-C4008C3DC592*
G04*
G04*
G04 #@! TF.FilePolarity,Negative*
G04*
G01*
G75*
%ADD14C,0.00500*%
%ADD70C,0.04000*%
%ADD71C,0.03569*%
G04:AMPARAMS|DCode=72|XSize=95.433mil|YSize=95.433mil|CornerRadius=0mil|HoleSize=0mil|Usage=FLASHONLY|Rotation=0.000|XOffset=0mil|YOffset=0mil|HoleType=Round|Shape=Relief|Width=15mil|Gap=15mil|Entries=4|*
%AMTHD72*
7,0,0,0.09543,0.06543,0.01500,45*
%
%ADD72THD72*%
%ADD73C,0.05143*%
%ADD74C,0.02781*%
D14*
X73000Y89793D02*
G03*
X72500Y91000I-1707J0D01*
G01*
X33000Y25000D02*
X48000D01*
Y56000D01*
X33000D02*
X48000D01*
X72500Y91000D02*
X73500Y92000D01*
X11000Y91000D02*
X72500D01*
X73500Y92000D02*
X190000D01*
Y119000D01*
X4500D02*
X190000D01*
X4500Y103500D02*
Y119000D01*
Y103500D02*
X9250D01*
X4500Y86500D02*
Y103500D01*
X9500D01*
X178500Y101000D02*
X180750D01*
X77500Y107000D02*
X89500D01*
Y101000D02*
Y107000D01*
Y101000D02*
X178500D01*
X180750Y92000D02*
Y101000D01*
X77500Y92000D02*
X180750D01*
X77500D02*
Y107000D01*
X4500Y91000D02*
X11000D01*
X4500Y25000D02*
Y86500D01*
Y25000D02*
X33000D01*
Y33500D01*
Y81500D01*
X73000D01*
Y89793D01*
D70*
X0Y5000D02*
G03*
X5000Y0I5000J0D01*
G01*
X194500D02*
G03*
X199500Y5000I0J5000D01*
G01*
Y121000D02*
G03*
X194500Y126000I-5000J0D01*
G01*
X5000D02*
G03*
X0Y121000I0J-5000D01*
G01*
X5000Y0D02*
X194500D01*
X199500Y5000D02*
Y121000D01*
X5000Y126000D02*
X194500D01*
X0Y5000D02*
Y121000D01*
D71*
X52543Y31937D02*
D03*
Y28000D02*
D03*
X49000D02*
D03*
Y31937D02*
D03*
X45457Y28000D02*
D03*
Y31937D02*
D03*
D72*
X174833Y97500D02*
D03*
X184833D02*
D03*
X13602Y29000D02*
D03*
X16000Y99000D02*
D03*
D73*
X144833Y97500D02*
D03*
Y107500D02*
D03*
X154833Y97500D02*
D03*
Y107500D02*
D03*
X164833Y97500D02*
D03*
Y107500D02*
D03*
X174833D02*
D03*
X184833D02*
D03*
X191000Y54000D02*
D03*
Y44000D02*
D03*
Y75788D02*
D03*
Y65788D02*
D03*
X13602Y19000D02*
D03*
X16000Y109000D02*
D03*
D74*
X191500Y117500D02*
D03*
X194000Y112500D02*
D03*
X191500Y107500D02*
D03*
X194000Y102500D02*
D03*
X191500Y97500D02*
D03*
X194000Y92500D02*
D03*
X191500Y87500D02*
D03*
X194000Y82500D02*
D03*
X186500Y117500D02*
D03*
X189000Y112500D02*
D03*
Y102500D02*
D03*
Y92500D02*
D03*
X186500Y87500D02*
D03*
X189000Y82500D02*
D03*
X186500Y57500D02*
D03*
X181500Y117500D02*
D03*
X184000Y112500D02*
D03*
Y102500D02*
D03*
Y92500D02*
D03*
Y72500D02*
D03*
Y62500D02*
D03*
X176500Y117500D02*
D03*
X179000Y112500D02*
D03*
X171500Y117500D02*
D03*
X174000Y112500D02*
D03*
Y102500D02*
D03*
X166500Y117500D02*
D03*
X169000Y112500D02*
D03*
X161500Y117500D02*
D03*
X164000Y112500D02*
D03*
Y102500D02*
D03*
X156500Y117500D02*
D03*
X159000Y112500D02*
D03*
X151500Y117500D02*
D03*
X154000Y112500D02*
D03*
Y102500D02*
D03*
Y92500D02*
D03*
X146500Y117500D02*
D03*
X149000Y112500D02*
D03*
X146500Y57500D02*
D03*
X141500Y117500D02*
D03*
Y87500D02*
D03*
Y77500D02*
D03*
Y67500D02*
D03*
X144000Y62500D02*
D03*
X141500Y57500D02*
D03*
X136500Y117500D02*
D03*
X139000Y112500D02*
D03*
X136500Y107500D02*
D03*
X139000Y102500D02*
D03*
X136500Y97500D02*
D03*
X139000Y92500D02*
D03*
X136500Y67500D02*
D03*
X139000Y62500D02*
D03*
X136500Y57500D02*
D03*
X134000Y112500D02*
D03*
Y102500D02*
D03*
X131500Y87500D02*
D03*
Y77500D02*
D03*
Y57500D02*
D03*
X126500Y117500D02*
D03*
Y77500D02*
D03*
X124000Y112500D02*
D03*
X121500Y77500D02*
D03*
X111500Y107500D02*
D03*
X109000Y112500D02*
D03*
X106500Y107500D02*
D03*
X104000Y62500D02*
D03*
X96500Y67500D02*
D03*
X91500D02*
D03*
Y27500D02*
D03*
Y17500D02*
D03*
X94000Y12500D02*
D03*
X91500Y7500D02*
D03*
X86500Y57500D02*
D03*
X89000Y52500D02*
D03*
Y12500D02*
D03*
X81500Y87500D02*
D03*
Y67500D02*
D03*
X76500Y57500D02*
D03*
X79000Y52500D02*
D03*
X69000D02*
D03*
X44000Y82500D02*
D03*
X41500Y77500D02*
D03*
X21500Y117500D02*
D03*
X24000Y112500D02*
D03*
Y82500D02*
D03*
X16500Y117500D02*
D03*
X19000Y112500D02*
D03*
X16500Y67500D02*
D03*
Y57500D02*
D03*
X11500Y117500D02*
D03*
X14000Y72500D02*
D03*
X11500Y67500D02*
D03*
X14000Y62500D02*
D03*
X11500Y57500D02*
D03*
X6500Y117500D02*
D03*
X9000Y112500D02*
D03*
Y72500D02*
D03*
X6500Y67500D02*
D03*
X9000Y62500D02*
D03*
X6500Y57500D02*
D03*
X33000Y16500D02*
D03*
X102000Y121500D02*
D03*
X97500D02*
D03*
X93000D02*
D03*
X89000D02*
D03*
X48500Y57500D02*
D03*
X57275Y57225D02*
D03*
X126500Y22500D02*
D03*
Y26000D02*
D03*
X40500Y85000D02*
D03*
X62000Y41224D02*
D03*
X62113Y31065D02*
D03*
X85500Y46000D02*
D03*
X82500D02*
D03*
Y50000D02*
D03*
X85500D02*
D03*
Y53500D02*
D03*
X82500D02*
D03*
X86500Y5500D02*
D03*
X84000D02*
D03*
X81000D02*
D03*
X179500Y56500D02*
D03*
X131000Y116000D02*
D03*
X173500Y34000D02*
D03*
X87000Y89000D02*
D03*
X124500Y107500D02*
D03*
X115000Y116000D02*
D03*
X120000Y116500D02*
D03*
X28000Y67000D02*
D03*
X24654Y56154D02*
D03*
X66082Y31918D02*
D03*
X57000Y41500D02*
D03*
X118500Y44484D02*
D03*
X144000Y44500D02*
D03*
X163000Y67500D02*
D03*
X160500Y69000D02*
D03*
X158000Y73500D02*
D03*
X162500Y90500D02*
D03*
X118500Y78000D02*
D03*
X65500Y96477D02*
D03*
Y98500D02*
D03*
X39000Y74500D02*
D03*
X168000Y48000D02*
D03*
X110000Y102000D02*
D03*
X95000Y98500D02*
D03*
X123500Y55842D02*
D03*
X116500Y56500D02*
D03*
X123500Y74000D02*
D03*
X169000Y53000D02*
D03*
X53270Y82500D02*
D03*
X43243Y88752D02*
D03*
X41500Y90500D02*
D03*
M02*
