G04*
G04 #@! TF.GenerationSoftware,Altium Limited,Altium Designer,21.9.2 (33)*
G04*
G04 Layer_Color=8421504*
%FSLAX25Y25*%
%MOIN*%
G70*
G04*
G04 #@! TF.SameCoordinates,C0BA0E73-4C5D-4CFB-B628-C4008C3DC592*
G04*
G04*
G04 #@! TF.FilePolarity,Positive*
G04*
G01*
G75*
%ADD16R,0.01181X0.05118*%
%ADD17R,0.01180X0.05118*%
%ADD18R,0.01181X0.05119*%
%ADD19R,0.05906X0.04921*%
%ADD20R,0.01181X0.04724*%
%ADD21R,0.04724X0.01181*%
%ADD22R,0.03150X0.00906*%
%ADD23R,0.00906X0.03150*%
%ADD24R,0.10630X0.10630*%
%ADD25R,0.00984X0.02657*%
%ADD26R,0.09646X0.07677*%
%ADD27R,0.03150X0.00787*%
%ADD28R,0.02560X0.04180*%
%ADD29R,0.05000X0.05000*%
%ADD30R,0.04724X0.14567*%
G04:AMPARAMS|DCode=31|XSize=43.7mil|YSize=57.87mil|CornerRadius=9.83mil|HoleSize=0mil|Usage=FLASHONLY|Rotation=90.000|XOffset=0mil|YOffset=0mil|HoleType=Round|Shape=RoundedRectangle|*
%AMROUNDEDRECTD31*
21,1,0.04370,0.03821,0,0,90.0*
21,1,0.02404,0.05787,0,0,90.0*
1,1,0.01967,0.01910,0.01202*
1,1,0.01967,0.01910,-0.01202*
1,1,0.01967,-0.01910,-0.01202*
1,1,0.01967,-0.01910,0.01202*
%
%ADD31ROUNDEDRECTD31*%
G04:AMPARAMS|DCode=32|XSize=43.7mil|YSize=57.87mil|CornerRadius=9.83mil|HoleSize=0mil|Usage=FLASHONLY|Rotation=180.000|XOffset=0mil|YOffset=0mil|HoleType=Round|Shape=RoundedRectangle|*
%AMROUNDEDRECTD32*
21,1,0.04370,0.03821,0,0,180.0*
21,1,0.02404,0.05787,0,0,180.0*
1,1,0.01967,-0.01202,0.01910*
1,1,0.01967,0.01202,0.01910*
1,1,0.01967,0.01202,-0.01910*
1,1,0.01967,-0.01202,-0.01910*
%
%ADD32ROUNDEDRECTD32*%
G04:AMPARAMS|DCode=33|XSize=24.8mil|YSize=22.84mil|CornerRadius=5.94mil|HoleSize=0mil|Usage=FLASHONLY|Rotation=180.000|XOffset=0mil|YOffset=0mil|HoleType=Round|Shape=RoundedRectangle|*
%AMROUNDEDRECTD33*
21,1,0.02480,0.01096,0,0,180.0*
21,1,0.01293,0.02284,0,0,180.0*
1,1,0.01187,-0.00647,0.00548*
1,1,0.01187,0.00647,0.00548*
1,1,0.01187,0.00647,-0.00548*
1,1,0.01187,-0.00647,-0.00548*
%
%ADD33ROUNDEDRECTD33*%
G04:AMPARAMS|DCode=34|XSize=24.8mil|YSize=22.84mil|CornerRadius=5.94mil|HoleSize=0mil|Usage=FLASHONLY|Rotation=270.000|XOffset=0mil|YOffset=0mil|HoleType=Round|Shape=RoundedRectangle|*
%AMROUNDEDRECTD34*
21,1,0.02480,0.01096,0,0,270.0*
21,1,0.01293,0.02284,0,0,270.0*
1,1,0.01187,-0.00548,-0.00647*
1,1,0.01187,-0.00548,0.00647*
1,1,0.01187,0.00548,0.00647*
1,1,0.01187,0.00548,-0.00647*
%
%ADD34ROUNDEDRECTD34*%
D16*
X171563Y67470D02*
D03*
X173531D02*
D03*
X177469Y67475D02*
D03*
X175500Y47526D02*
D03*
D17*
Y67472D02*
D03*
X179437Y47525D02*
D03*
X177469D02*
D03*
X173531Y47526D02*
D03*
X171563Y47525D02*
D03*
D18*
X179437Y67470D02*
D03*
D19*
X99000Y62193D02*
D03*
Y73807D02*
D03*
D20*
X145764Y83638D02*
D03*
X116236Y38362D02*
D03*
X118205D02*
D03*
X120173D02*
D03*
X122142D02*
D03*
X124110D02*
D03*
X126079D02*
D03*
X128047D02*
D03*
X130016D02*
D03*
X131984D02*
D03*
X133953D02*
D03*
X135921D02*
D03*
X137890D02*
D03*
X139858D02*
D03*
X141827D02*
D03*
X143795D02*
D03*
X145764D02*
D03*
X143795Y83638D02*
D03*
X141827D02*
D03*
X139858D02*
D03*
X137890D02*
D03*
X135921D02*
D03*
X133953D02*
D03*
X131984D02*
D03*
X130016D02*
D03*
X128047D02*
D03*
X126079D02*
D03*
X124110D02*
D03*
X122142D02*
D03*
X120173D02*
D03*
X118205D02*
D03*
X116236D02*
D03*
D21*
X108362Y75764D02*
D03*
Y73795D02*
D03*
Y71827D02*
D03*
Y69858D02*
D03*
Y67890D02*
D03*
Y65921D02*
D03*
Y63953D02*
D03*
Y61984D02*
D03*
Y60016D02*
D03*
Y58047D02*
D03*
Y54110D02*
D03*
Y52142D02*
D03*
Y50173D02*
D03*
Y48205D02*
D03*
Y46236D02*
D03*
X153638D02*
D03*
Y48205D02*
D03*
Y50173D02*
D03*
Y52142D02*
D03*
Y58047D02*
D03*
Y60016D02*
D03*
Y61984D02*
D03*
Y63953D02*
D03*
Y65921D02*
D03*
Y73795D02*
D03*
Y75764D02*
D03*
Y71827D02*
D03*
Y54110D02*
D03*
Y56079D02*
D03*
Y67890D02*
D03*
Y69858D02*
D03*
X108362Y56079D02*
D03*
D22*
X46396Y98610D02*
D03*
Y96641D02*
D03*
Y94673D02*
D03*
Y92704D02*
D03*
Y90736D02*
D03*
Y88767D02*
D03*
X62144D02*
D03*
Y90736D02*
D03*
Y92704D02*
D03*
Y94673D02*
D03*
Y96641D02*
D03*
Y98610D02*
D03*
D23*
X55255Y85815D02*
D03*
X53286D02*
D03*
X51318D02*
D03*
X49349D02*
D03*
X57223D02*
D03*
X59192D02*
D03*
Y101563D02*
D03*
X57223D02*
D03*
X49349D02*
D03*
X51318D02*
D03*
X53286D02*
D03*
X55255D02*
D03*
D24*
X54270Y93689D02*
D03*
D25*
X44669Y24803D02*
D03*
Y35134D02*
D03*
X53331Y24803D02*
D03*
Y35136D02*
D03*
D26*
X49000Y29969D02*
D03*
D27*
X56874Y29181D02*
D03*
Y30756D02*
D03*
Y32331D02*
D03*
Y33906D02*
D03*
Y27606D02*
D03*
Y26032D02*
D03*
X41126Y33906D02*
D03*
Y32331D02*
D03*
Y30756D02*
D03*
Y29181D02*
D03*
Y27606D02*
D03*
Y26032D02*
D03*
D28*
X98740Y91096D02*
D03*
X91260D02*
D03*
Y102905D02*
D03*
X95000D02*
D03*
X98740D02*
D03*
D29*
X28000Y80500D02*
D03*
X28020Y72270D02*
D03*
D30*
X82336Y114849D02*
D03*
X71312D02*
D03*
D31*
X162500Y85847D02*
D03*
Y79154D02*
D03*
X23997Y29378D02*
D03*
Y22685D02*
D03*
X33000Y29378D02*
D03*
Y22685D02*
D03*
X110003Y90693D02*
D03*
Y97386D02*
D03*
X85021Y20463D02*
D03*
Y27156D02*
D03*
X76518D02*
D03*
Y20463D02*
D03*
X67516Y27156D02*
D03*
Y20463D02*
D03*
X67503Y6185D02*
D03*
Y12878D02*
D03*
X58500D02*
D03*
Y6185D02*
D03*
X151005Y30347D02*
D03*
Y23653D02*
D03*
X142003Y30307D02*
D03*
Y23614D02*
D03*
X133000D02*
D03*
Y30307D02*
D03*
X120000Y30193D02*
D03*
Y23500D02*
D03*
X171003Y79154D02*
D03*
Y85847D02*
D03*
X180005Y79154D02*
D03*
Y85847D02*
D03*
X124500Y95958D02*
D03*
Y102651D02*
D03*
X99103Y109689D02*
D03*
Y116382D02*
D03*
X90100Y109842D02*
D03*
Y116535D02*
D03*
X49270Y109342D02*
D03*
Y116035D02*
D03*
X35770Y98689D02*
D03*
Y105382D02*
D03*
X26768Y98689D02*
D03*
Y105382D02*
D03*
X57275Y61842D02*
D03*
Y68535D02*
D03*
X66770Y61842D02*
D03*
Y68535D02*
D03*
X48273Y61842D02*
D03*
Y68535D02*
D03*
X39270Y61842D02*
D03*
Y68535D02*
D03*
X75773Y61842D02*
D03*
Y68535D02*
D03*
D32*
X45500Y51034D02*
D03*
X52193D02*
D03*
X45153Y42031D02*
D03*
X51846D02*
D03*
X31346Y61500D02*
D03*
X24654D02*
D03*
X68770Y89189D02*
D03*
X75463D02*
D03*
X92154Y83003D02*
D03*
X98847D02*
D03*
X84471Y74000D02*
D03*
X91164D02*
D03*
Y62000D02*
D03*
X84471D02*
D03*
X93294Y52997D02*
D03*
X99987D02*
D03*
Y43497D02*
D03*
X93294D02*
D03*
X66807Y46031D02*
D03*
X73500D02*
D03*
X66807Y36950D02*
D03*
X73500D02*
D03*
X82346Y11032D02*
D03*
X75653D02*
D03*
X173346Y39500D02*
D03*
X166654D02*
D03*
X57564Y110189D02*
D03*
X64257D02*
D03*
X27424Y90395D02*
D03*
X34117D02*
D03*
D33*
X161787Y48000D02*
D03*
X165213D02*
D03*
X161787Y53066D02*
D03*
X165213D02*
D03*
X161787Y58131D02*
D03*
X165213D02*
D03*
X161787Y62500D02*
D03*
X165213D02*
D03*
D34*
X131000Y109075D02*
D03*
Y112500D02*
D03*
X120000Y109270D02*
D03*
Y112696D02*
D03*
X114934Y109270D02*
D03*
Y112696D02*
D03*
M02*
