G04*
G04 #@! TF.GenerationSoftware,Altium Limited,Altium Designer,21.9.2 (33)*
G04*
G04 Layer_Color=8388736*
%FSLAX25Y25*%
%MOIN*%
G70*
G04*
G04 #@! TF.SameCoordinates,C0BA0E73-4C5D-4CFB-B628-C4008C3DC592*
G04*
G04*
G04 #@! TF.FilePolarity,Negative*
G04*
G01*
G75*
%ADD35R,0.96500X0.14000*%
%ADD36R,0.01981X0.05918*%
%ADD37R,0.01980X0.05918*%
%ADD38R,0.01981X0.05919*%
%ADD39R,0.06706X0.05721*%
%ADD40R,0.01981X0.05524*%
%ADD41R,0.05524X0.01981*%
%ADD42R,0.03701X0.01457*%
%ADD43R,0.01457X0.03701*%
%ADD44R,0.11430X0.11430*%
%ADD45R,0.01378X0.03051*%
%ADD46R,0.10039X0.08071*%
%ADD47R,0.03543X0.01181*%
%ADD48R,0.03360X0.04980*%
%ADD49R,0.05800X0.05800*%
%ADD50R,0.05524X0.15367*%
G04:AMPARAMS|DCode=51|XSize=51.7mil|YSize=65.87mil|CornerRadius=13.83mil|HoleSize=0mil|Usage=FLASHONLY|Rotation=90.000|XOffset=0mil|YOffset=0mil|HoleType=Round|Shape=RoundedRectangle|*
%AMROUNDEDRECTD51*
21,1,0.05170,0.03821,0,0,90.0*
21,1,0.02404,0.06587,0,0,90.0*
1,1,0.02766,0.01910,0.01202*
1,1,0.02766,0.01910,-0.01202*
1,1,0.02766,-0.01910,-0.01202*
1,1,0.02766,-0.01910,0.01202*
%
%ADD51ROUNDEDRECTD51*%
G04:AMPARAMS|DCode=52|XSize=51.7mil|YSize=65.87mil|CornerRadius=13.83mil|HoleSize=0mil|Usage=FLASHONLY|Rotation=180.000|XOffset=0mil|YOffset=0mil|HoleType=Round|Shape=RoundedRectangle|*
%AMROUNDEDRECTD52*
21,1,0.05170,0.03821,0,0,180.0*
21,1,0.02404,0.06587,0,0,180.0*
1,1,0.02766,-0.01202,0.01910*
1,1,0.02766,0.01202,0.01910*
1,1,0.02766,0.01202,-0.01910*
1,1,0.02766,-0.01202,-0.01910*
%
%ADD52ROUNDEDRECTD52*%
G04:AMPARAMS|DCode=53|XSize=32.8mil|YSize=30.84mil|CornerRadius=9.94mil|HoleSize=0mil|Usage=FLASHONLY|Rotation=180.000|XOffset=0mil|YOffset=0mil|HoleType=Round|Shape=RoundedRectangle|*
%AMROUNDEDRECTD53*
21,1,0.03280,0.01096,0,0,180.0*
21,1,0.01293,0.03084,0,0,180.0*
1,1,0.01987,-0.00647,0.00548*
1,1,0.01987,0.00647,0.00548*
1,1,0.01987,0.00647,-0.00548*
1,1,0.01987,-0.00647,-0.00548*
%
%ADD53ROUNDEDRECTD53*%
G04:AMPARAMS|DCode=54|XSize=32.8mil|YSize=30.84mil|CornerRadius=9.94mil|HoleSize=0mil|Usage=FLASHONLY|Rotation=270.000|XOffset=0mil|YOffset=0mil|HoleType=Round|Shape=RoundedRectangle|*
%AMROUNDEDRECTD54*
21,1,0.03280,0.01096,0,0,270.0*
21,1,0.01293,0.03084,0,0,270.0*
1,1,0.01987,-0.00548,-0.00647*
1,1,0.01987,-0.00548,0.00647*
1,1,0.01987,0.00548,0.00647*
1,1,0.01987,0.00548,-0.00647*
%
%ADD54ROUNDEDRECTD54*%
%ADD55C,0.02769*%
%ADD56R,0.06706X0.06706*%
%ADD57C,0.06706*%
%ADD58R,0.06706X0.06706*%
D35*
X146750Y10000D02*
D03*
D36*
X171563Y67470D02*
D03*
X173531D02*
D03*
X177469Y67475D02*
D03*
X175500Y47526D02*
D03*
D37*
Y67472D02*
D03*
X179437Y47525D02*
D03*
X177469D02*
D03*
X173531Y47526D02*
D03*
X171563Y47525D02*
D03*
D38*
X179437Y67470D02*
D03*
D39*
X99000Y62193D02*
D03*
Y73807D02*
D03*
D40*
X145764Y83638D02*
D03*
X116236Y38362D02*
D03*
X118205D02*
D03*
X120173D02*
D03*
X122142D02*
D03*
X124110D02*
D03*
X126079D02*
D03*
X128047D02*
D03*
X130016D02*
D03*
X131984D02*
D03*
X133953D02*
D03*
X135921D02*
D03*
X137890D02*
D03*
X139858D02*
D03*
X141827D02*
D03*
X143795D02*
D03*
X145764D02*
D03*
X143795Y83638D02*
D03*
X141827D02*
D03*
X139858D02*
D03*
X137890D02*
D03*
X135921D02*
D03*
X133953D02*
D03*
X131984D02*
D03*
X130016D02*
D03*
X128047D02*
D03*
X126079D02*
D03*
X124110D02*
D03*
X122142D02*
D03*
X120173D02*
D03*
X118205D02*
D03*
X116236D02*
D03*
D41*
X108362Y75764D02*
D03*
Y73795D02*
D03*
Y71827D02*
D03*
Y69858D02*
D03*
Y67890D02*
D03*
Y65921D02*
D03*
Y63953D02*
D03*
Y61984D02*
D03*
Y60016D02*
D03*
Y58047D02*
D03*
Y54110D02*
D03*
Y52142D02*
D03*
Y50173D02*
D03*
Y48205D02*
D03*
Y46236D02*
D03*
X153638D02*
D03*
Y48205D02*
D03*
Y50173D02*
D03*
Y52142D02*
D03*
Y58047D02*
D03*
Y60016D02*
D03*
Y61984D02*
D03*
Y63953D02*
D03*
Y65921D02*
D03*
Y73795D02*
D03*
Y75764D02*
D03*
Y71827D02*
D03*
Y54110D02*
D03*
Y56079D02*
D03*
Y67890D02*
D03*
Y69858D02*
D03*
X108362Y56079D02*
D03*
D42*
X46396Y98610D02*
D03*
Y96641D02*
D03*
Y94673D02*
D03*
Y92704D02*
D03*
Y90736D02*
D03*
Y88767D02*
D03*
X62144D02*
D03*
Y90736D02*
D03*
Y92704D02*
D03*
Y94673D02*
D03*
Y96641D02*
D03*
Y98610D02*
D03*
D43*
X55255Y85815D02*
D03*
X53286D02*
D03*
X51318D02*
D03*
X49349D02*
D03*
X57223D02*
D03*
X59192D02*
D03*
Y101563D02*
D03*
X57223D02*
D03*
X49349D02*
D03*
X51318D02*
D03*
X53286D02*
D03*
X55255D02*
D03*
D44*
X54270Y93689D02*
D03*
D45*
X44669Y24803D02*
D03*
Y35134D02*
D03*
X53331Y24803D02*
D03*
Y35136D02*
D03*
D46*
X49000Y29969D02*
D03*
D47*
X56874Y29181D02*
D03*
Y30756D02*
D03*
Y32331D02*
D03*
Y33906D02*
D03*
Y27606D02*
D03*
Y26032D02*
D03*
X41126Y33906D02*
D03*
Y32331D02*
D03*
Y30756D02*
D03*
Y29181D02*
D03*
Y27606D02*
D03*
Y26032D02*
D03*
D48*
X98740Y91096D02*
D03*
X91260D02*
D03*
Y102905D02*
D03*
X95000D02*
D03*
X98740D02*
D03*
D49*
X28000Y80500D02*
D03*
X28020Y72270D02*
D03*
D50*
X82336Y114849D02*
D03*
X71312D02*
D03*
D51*
X162500Y85847D02*
D03*
Y79154D02*
D03*
X23997Y29378D02*
D03*
Y22685D02*
D03*
X33000Y29378D02*
D03*
Y22685D02*
D03*
X110003Y90693D02*
D03*
Y97386D02*
D03*
X85021Y20463D02*
D03*
Y27156D02*
D03*
X76518D02*
D03*
Y20463D02*
D03*
X67516Y27156D02*
D03*
Y20463D02*
D03*
X67503Y6185D02*
D03*
Y12878D02*
D03*
X58500D02*
D03*
Y6185D02*
D03*
X151005Y30347D02*
D03*
Y23653D02*
D03*
X142003Y30307D02*
D03*
Y23614D02*
D03*
X133000D02*
D03*
Y30307D02*
D03*
X120000Y30193D02*
D03*
Y23500D02*
D03*
X171003Y79154D02*
D03*
Y85847D02*
D03*
X180005Y79154D02*
D03*
Y85847D02*
D03*
X124500Y95958D02*
D03*
Y102651D02*
D03*
X99103Y109689D02*
D03*
Y116382D02*
D03*
X90100Y109842D02*
D03*
Y116535D02*
D03*
X49270Y109342D02*
D03*
Y116035D02*
D03*
X35770Y98689D02*
D03*
Y105382D02*
D03*
X26768Y98689D02*
D03*
Y105382D02*
D03*
X57275Y61842D02*
D03*
Y68535D02*
D03*
X66770Y61842D02*
D03*
Y68535D02*
D03*
X48273Y61842D02*
D03*
Y68535D02*
D03*
X39270Y61842D02*
D03*
Y68535D02*
D03*
X75773Y61842D02*
D03*
Y68535D02*
D03*
D52*
X45500Y51034D02*
D03*
X52193D02*
D03*
X45153Y42031D02*
D03*
X51846D02*
D03*
X31346Y61500D02*
D03*
X24654D02*
D03*
X68770Y89189D02*
D03*
X75463D02*
D03*
X92154Y83003D02*
D03*
X98847D02*
D03*
X84471Y74000D02*
D03*
X91164D02*
D03*
Y62000D02*
D03*
X84471D02*
D03*
X93294Y52997D02*
D03*
X99987D02*
D03*
Y43497D02*
D03*
X93294D02*
D03*
X66807Y46031D02*
D03*
X73500D02*
D03*
X66807Y36950D02*
D03*
X73500D02*
D03*
X82346Y11032D02*
D03*
X75653D02*
D03*
X173346Y39500D02*
D03*
X166654D02*
D03*
X57564Y110189D02*
D03*
X64257D02*
D03*
X27424Y90395D02*
D03*
X34117D02*
D03*
D53*
X161787Y48000D02*
D03*
X165213D02*
D03*
X161787Y53066D02*
D03*
X165213D02*
D03*
X161787Y58131D02*
D03*
X165213D02*
D03*
X161787Y62500D02*
D03*
X165213D02*
D03*
D54*
X131000Y109075D02*
D03*
Y112500D02*
D03*
X120000Y109270D02*
D03*
Y112696D02*
D03*
X114934Y109270D02*
D03*
Y112696D02*
D03*
D55*
X52543Y31937D02*
D03*
Y28000D02*
D03*
X49000D02*
D03*
Y31937D02*
D03*
X45457Y28000D02*
D03*
Y31937D02*
D03*
D56*
X144833Y97500D02*
D03*
D57*
Y107500D02*
D03*
X154833Y97500D02*
D03*
Y107500D02*
D03*
X164833Y97500D02*
D03*
Y107500D02*
D03*
X174833Y97500D02*
D03*
Y107500D02*
D03*
X184833Y97500D02*
D03*
Y107500D02*
D03*
X191000Y54000D02*
D03*
Y75788D02*
D03*
X13602Y19000D02*
D03*
X16000Y109000D02*
D03*
D58*
X191000Y44000D02*
D03*
Y65788D02*
D03*
X13602Y29000D02*
D03*
X16000Y99000D02*
D03*
M02*
