M48
;Layer_Color=9474304
;FILE_FORMAT=2:5
INCH,LZ
;TYPE=PLATED
T1F00S00C0.01181
T2F00S00C0.01968
T3F00S00C0.03543
%
T01
X00065Y00575
X00115
X00165
X0014Y00625
X0009
X00115Y00675
X00165
X0014Y00725
X0009
X00065Y00675
X0028Y0067
X0024654Y0056154
X0024Y00825
Y01125
X0019
X0009
X00415Y00905
X0043243Y0088752
X00405Y0085
X0044Y00825
X00415Y00775
X0039Y00745
X00355Y0058
X0036Y00475
Y0042
Y00375
X0038Y00275
X0033Y00165
X0062113Y0031065
X0066082Y0031918
X0062Y0041224
X0057Y00415
X0057275Y0057225
X00485Y00575
X0069Y00525
X0079
X00825Y00535
X00855
Y005
X00825
Y0046
X00855
X0089Y00525
X00865Y00575
X00765
X00815Y00675
X00915
X00965
X0104Y00625
X01165Y00565
X01235Y0055842
X01315Y00575
X01365
X01415
X01465
X0144Y00625
X0139
X01415Y00675
X01365
X01415Y00775
Y00875
X0139Y00925
X01365Y00975
X0139Y01025
X0134
X01365Y01075
X0139Y01125
X0134
X0131Y0116
X0124Y01125
X01245Y01075
X01115
X01065
X0109Y01125
X0115Y0116
X011Y0102
Y00855
X01065
X0104Y00875
Y00905
X01065Y00795
X011
X01185Y0078
X01215Y00775
X01265
X01315
Y00875
X01235Y0074
X01185Y0044484
X0109Y0036
Y00325
X0104
Y0036
X00995
Y00325
X00915Y00275
Y00175
X0094Y00125
X0089
X00915Y00075
X00865Y00055
X0084
X0081
X01265Y00225
Y0026
X0144Y00445
X0168Y0048
X0169Y0053
X01795Y00565
X01865Y00575
X0184Y00625
Y00725
X0176Y0072
X0163Y00675
X01605Y0069
X0158Y00735
X0155Y00805
Y00835
Y00855
X0157Y00875
X0154Y00925
Y01025
X0164
X0174
X0184
Y01125
X0179
X0174
X0169
X0164
X0159
X0154
X0149
X01625Y00905
X0184Y00925
X01865Y00875
X01735Y0034
X0167Y00315
X0163
X0159
X0087Y0089
X00815Y00875
X00825Y0096
X0086
Y01
X00825
Y0104
X0086
X0095Y00985
X00655
Y0096477
X00685Y0084484
X005327Y00825
X0189
X0194
X01915Y00875
X0194Y00925
X0189
X01915Y00975
X0194Y01025
X0189
X01915Y01075
X0194Y01125
X0189
X01915Y01175
X01865
X01815
X01765
X01715
X01665
X01615
X01565
X01515
X01465
X01415
X01365
X01265
X012Y01165
X0102Y01215
X00975
X0093
X0089
X00415Y0121
X0037
X00325
X00285
X00215Y01175
X00165
X00115
X00065
T02
X0045457Y0028
X0049
X0052543
Y0031937
X0049
X0045457
T03
X0013602Y0019
Y0029
X0016Y0099
Y0109
X0144833Y01075
Y00975
X0154833
Y01075
X0164833
Y00975
X0174833
Y01075
X0184833
Y00975
X0191Y0075788
Y0065788
Y0054
Y0044
M30
